HIERARCHY
ROOT hip
{
	OFFSET 0.000000 0.000000 0.000000
	CHANNELS 6 Xposition Yposition Zposition Xrotation Zrotation Yrotation 
	JOINT abdomen
	{
		OFFSET 0.000000 3.422050 0.000000
		CHANNELS 3 Xrotation Zrotation Yrotation 
		JOINT chest
		{
			OFFSET 0.000000 8.486693 -0.684411
			CHANNELS 3 Xrotation Zrotation Yrotation 
			JOINT neck
			{
				OFFSET 0.000000 10.266162 -0.273764
				CHANNELS 3 Xrotation Zrotation Yrotation 
				JOINT head
				{
					OFFSET 0.000000 3.148285 0.000000
					CHANNELS 3 Xrotation Zrotation Yrotation 
					End Site
					{
						OFFSET 0.000000 3.148289 0.000000
					}
				}
			}
			JOINT lCollar
			{
				OFFSET 3.422053 6.707223 -0.821293
				CHANNELS 3 Yrotation Zrotation Xrotation 
				JOINT lShldr
				{
					OFFSET 3.285171 0.000000 0.000000
					CHANNELS 3 Zrotation Yrotation Xrotation 
					JOINT lForeArm
					{
						OFFSET 10.129278 0.000000 0.000000
						CHANNELS 3 Yrotation Zrotation Xrotation 
						JOINT lHand
						{
							OFFSET 8.486692 0.000000 0.000000
							CHANNELS 3 Zrotation Yrotation Xrotation 
							End Site
							{
								OFFSET 4.106464 0.000000 0.000000
							}
						}
					}
				}
			}
			JOINT rCollar
			{
				OFFSET -3.558935 6.707223 -0.821293
				CHANNELS 3 Yrotation Zrotation Xrotation 
				JOINT rShldr
				{
					OFFSET -3.148289 0.000000 0.000000
					CHANNELS 3 Zrotation Yrotation Xrotation 
					JOINT rForeArm
					{
						OFFSET -10.266159 0.000000 0.000000
						CHANNELS 3 Yrotation Zrotation Xrotation 
						JOINT rHand
						{
							OFFSET -8.349810 0.000000 0.000000
							CHANNELS 3 Zrotation Yrotation Xrotation 
							End Site
							{
								OFFSET -4.106464 0.000000 0.000000
							}
						}
					}
				}
			}
		}
	}
	JOINT lThigh
	{
		OFFSET 5.338403 -1.642589 1.368821
		CHANNELS 3 Xrotation Zrotation Yrotation 
		JOINT lShin
		{
			OFFSET -2.053232 -20.121670 0.000000
			CHANNELS 3 Xrotation Zrotation Yrotation 
			JOINT lFoot
			{
				OFFSET 0.000000 -19.300380 -1.231939
				CHANNELS 3 Xrotation Yrotation Zrotation 
				End Site
				{
					OFFSET 0.000000 -2.463878 4.653993
				}
			}
		}
	}
	JOINT rThigh
	{
		OFFSET -5.338403 -1.642589 1.368821
		CHANNELS 3 Xrotation Zrotation Yrotation 
		JOINT rShin
		{
			OFFSET 2.053232 -20.121670 0.000000
			CHANNELS 3 Xrotation Zrotation Yrotation 
			JOINT rFoot
			{
				OFFSET 0.000000 -19.300380 -1.231939
				CHANNELS 3 Xrotation Yrotation Zrotation 
				End Site
				{
					OFFSET 0.000000 -2.463878 4.653993
				}
			}
		}
	}
}
MOTION
Frames: 15
Frame Time: 0.033264
0.000000 43.528500 0.000000 0.000000 0.000000 0.000000 0.000000 0.000000 0.000000 0.000000 0.000000 0.000000 0.000000 0.000000 0.000000 0.000000 0.000000 0.000000 0.000000 0.000000 0.000000 0.000000 0.000000 0.000000 0.000000 0.000000 0.000000 0.000000 0.000000 0.000000 0.000000 0.000000 0.000000 0.000000 0.000000 0.000000 0.000000 0.000000 0.000000 0.000000 0.000000 0.000000 0.000000 0.000000 0.000000 0.000000 0.000000 0.000000 0.000000 0.000000 0.000000 0.000000 0.000000 0.000000 0.000000 0.000000 0.000000 0.000000 0.000000 0.000000 
0.000000 7.522690 0.000000 -48.026028 0.432040 -1.982361 31.122530 -13.270316 1.399263 24.709583 5.973298 -3.364387 5.999416 1.998042 -0.002108 -24.333502 9.996986 9.000123 12.818349 -14.306571 -3.182500 -58.918037 -1.490264 -4.198714 -16.721472 9.920465 -22.008644 31.079367 9.632678 59.290344 21.488667 5.494109 -6.006965 -9.915583 39.254395 -25.398357 15.246999 5.677316 -61.513004 7.293101 6.930178 -21.655041 -24.200228 38.210922 90.442467 92.245514 -4.893553 -5.051108 59.675430 11.651778 -55.361794 -90.405777 -20.052402 -6.606799 96.559227 -7.353359 1.707714 39.493183 1.618549 20.357464 
0.000000 7.522690 0.000000 -48.026028 0.432040 -1.982361 31.122530 -13.270317 1.399263 24.709583 5.973298 -3.364387 6.015651 1.913284 -0.068631 -24.333504 9.996987 9.000123 12.818349 -14.306571 -3.182500 -58.918037 -1.490264 -4.198714 -16.721474 9.920465 -22.008644 31.079367 9.632678 59.290344 21.488670 5.494110 -6.006965 -9.915585 39.254398 -25.398361 15.502692 5.573447 -61.028053 7.293101 6.930178 -21.655041 -24.200230 38.210926 90.442467 92.245522 -4.893553 -5.051108 59.675430 11.651778 -55.361794 -90.405777 -20.052402 -6.606799 96.559227 -7.353359 1.707714 39.493183 1.618549 20.357464 
0.000000 7.522690 0.000000 -48.026028 0.432040 -1.982361 31.122530 -13.270316 1.399263 24.709583 5.973298 -3.364387 6.031988 1.828518 -0.135196 -24.333502 9.996986 9.000123 12.818349 -14.306571 -3.182500 -58.918045 -1.490264 -4.198714 -16.721472 9.920465 -22.008644 31.079367 9.632680 59.290344 21.488667 5.494109 -6.006965 -9.915583 39.254395 -25.398357 15.759758 5.471518 -60.541664 7.293102 6.930179 -21.655041 -24.200228 38.210922 90.442467 92.245514 -4.893553 -5.051108 59.675430 11.651779 -55.361801 -90.405777 -20.052404 -6.606801 96.559227 -7.353359 1.707714 39.493183 1.618549 20.357468 
0.000000 7.522690 0.000000 -48.026028 0.432040 -1.982361 31.122530 -13.270317 1.399263 24.709583 5.973298 -3.364387 6.048428 1.743744 -0.201804 -24.333506 9.996987 9.000123 12.818349 -14.306572 -3.182500 -58.918045 -1.490264 -4.198714 -16.721476 9.920465 -22.008644 31.079369 9.632679 59.290352 21.488670 5.494110 -6.006965 -9.915585 39.254398 -25.398361 16.018190 5.371562 -60.053898 7.293101 6.930178 -21.655045 -24.200233 38.210930 90.442467 92.245522 -4.893553 -5.051108 59.675438 11.651781 -55.361797 -90.405777 -20.052402 -6.606799 96.559227 -7.353359 1.707715 39.493183 1.618550 20.357466 
0.000000 7.522690 0.000000 -48.026024 0.432040 -1.982361 31.122530 -13.270316 1.399263 24.709583 5.973298 -3.364387 6.064970 1.658964 -0.268453 -24.333500 9.996986 9.000122 12.818348 -14.306571 -3.182500 -58.918037 -1.490264 -4.198714 -16.721472 9.920465 -22.008644 31.079367 9.632678 59.290344 21.488663 5.494108 -6.006964 -9.915582 39.254391 -25.398354 16.277952 5.273603 -59.564762 7.293101 6.930177 -21.655041 -24.200230 38.210922 90.442459 92.245514 -4.893553 -5.051107 59.675430 11.651778 -55.361790 -90.405762 -20.052402 -6.606800 96.559227 -7.353358 1.707714 39.493179 1.618550 20.357462 
0.000000 7.522690 0.000000 -48.026028 0.432040 -1.982361 31.122530 -13.270316 1.399263 24.709583 5.973298 -3.364387 6.081617 1.574177 -0.335144 -24.333502 9.996986 9.000123 12.818349 -14.306570 -3.182500 -58.918037 -1.490264 -4.198714 -16.721472 9.920465 -22.008644 31.079367 9.632678 59.290344 21.488667 5.494109 -6.006964 -9.915583 39.254395 -25.398357 16.539028 5.177665 -59.074287 7.293101 6.930178 -21.655041 -24.200228 38.210922 90.442467 92.245514 -4.893553 -5.051108 59.675430 11.651778 -55.361794 -90.405777 -20.052402 -6.606799 96.559219 -7.353358 1.707714 39.493183 1.618550 20.357464 
0.000000 7.522690 0.000000 -48.026028 0.432040 -1.982361 31.122530 -13.270316 1.399263 24.709583 5.973298 -3.364387 6.098364 1.489383 -0.401878 -24.333502 9.996986 9.000123 12.818349 -14.306571 -3.182500 -58.918037 -1.490264 -4.198714 -16.721472 9.920465 -22.008644 31.079367 9.632678 59.290344 21.488667 5.494109 -6.006965 -9.915583 39.254395 -25.398357 16.801390 5.083779 -58.582493 7.293101 6.930178 -21.655041 -24.200228 38.210922 90.442467 92.245514 -4.893553 -5.051108 59.675430 11.651778 -55.361794 -90.405777 -20.052402 -6.606799 96.559227 -7.353359 1.707714 39.493183 1.618549 20.357464 
0.000000 7.522690 0.000000 -48.026028 0.432040 -1.982361 31.122530 -13.270316 1.399263 24.709583 5.973298 -3.364387 6.115217 1.404583 -0.468654 -24.333502 9.996986 9.000123 12.818349 -14.306571 -3.182500 -58.918037 -1.490264 -4.198714 -16.721474 9.920465 -22.008648 31.079367 9.632678 59.290352 21.488667 5.494109 -6.006965 -9.915583 39.254395 -25.398357 17.065010 4.991969 -58.089413 7.293101 6.930178 -21.655043 -24.200228 38.210922 90.442467 92.245514 -4.893553 -5.051108 59.675430 11.651778 -55.361794 -90.405785 -20.052404 -6.606798 96.559227 -7.353359 1.707714 39.493183 1.618549 20.357464 
0.000000 7.522690 0.000000 -48.026028 0.432040 -1.982361 31.122530 -13.270316 1.399263 24.709583 5.973298 -3.364387 6.132173 1.319777 -0.535473 -24.333502 9.996986 9.000123 12.818349 -14.306571 -3.182500 -58.918037 -1.490265 -4.198715 -16.721472 9.920465 -22.008644 31.079369 9.632677 59.290344 21.488667 5.494109 -6.006965 -9.915584 39.254395 -25.398359 17.329866 4.902259 -57.595066 7.293101 6.930178 -21.655041 -24.200228 38.210922 90.442467 92.245514 -4.893553 -5.051108 59.675430 11.651779 -55.361801 -90.405777 -20.052402 -6.606799 96.559227 -7.353359 1.707715 39.493183 1.618549 20.357464 
0.000000 7.522690 0.000000 -48.026028 0.432040 -1.982361 31.122530 -13.270317 1.399263 24.709583 5.973298 -3.364387 6.149232 1.234965 -0.602335 -24.333504 9.996987 9.000124 12.818349 -14.306571 -3.182500 -58.918037 -1.490265 -4.198715 -16.721474 9.920465 -22.008648 31.079367 9.632678 59.290344 21.488670 5.494109 -6.006965 -9.915583 39.254395 -25.398357 17.595932 4.814677 -57.099487 7.293101 6.930178 -21.655041 -24.200232 38.210926 90.442467 92.245514 -4.893554 -5.051108 59.675430 11.651778 -55.361794 -90.405777 -20.052402 -6.606799 96.559227 -7.353359 1.707715 39.493183 1.618549 20.357464 
0.000000 7.522690 0.000000 -48.026020 0.432040 -1.982361 31.122530 -13.270315 1.399263 24.709583 5.973298 -3.364387 6.166396 1.150148 -0.669241 -24.333502 9.996986 9.000123 12.818348 -14.306571 -3.182500 -58.918037 -1.490264 -4.198714 -16.721472 9.920464 -22.008642 31.079367 9.632679 59.290340 21.488665 5.494109 -6.006965 -9.915583 39.254391 -25.398355 17.863180 4.729244 -56.602715 7.293101 6.930177 -21.655041 -24.200224 38.210918 90.442467 92.245514 -4.893553 -5.051107 59.675430 11.651773 -55.361790 -90.405777 -20.052402 -6.606799 96.559227 -7.353359 1.707714 39.493179 1.618549 20.357464 
0.000000 7.522690 0.000000 -48.026024 0.432040 -1.982361 31.122530 -13.270316 1.399263 24.709583 5.973298 -3.364387 6.183663 1.065326 -0.736189 -24.333502 9.996986 9.000123 12.818349 -14.306570 -3.182500 -58.918037 -1.490264 -4.198714 -16.721472 9.920465 -22.008644 31.079367 9.632677 59.290340 21.488667 5.494109 -6.006965 -9.915583 39.254391 -25.398355 18.131577 4.645984 -56.104744 7.293101 6.930178 -21.655041 -24.200230 38.210922 90.442459 92.245514 -4.893553 -5.051108 59.675430 11.651778 -55.361794 -90.405777 -20.052402 -6.606798 96.559227 -7.353359 1.707714 39.493183 1.618549 20.357464 
0.000000 7.522690 0.000000 -48.026028 0.432040 -1.982361 31.122530 -13.270316 1.399263 24.709583 5.973298 -3.364387 6.201032 0.980499 -0.803182 -24.333502 9.996986 9.000123 12.818349 -14.306571 -3.182500 -58.918037 -1.490264 -4.198714 -16.721472 9.920465 -22.008644 31.079367 9.632678 59.290344 21.488665 5.494109 -6.006965 -9.915583 39.254395 -25.398357 18.401104 4.564925 -55.605644 7.293101 6.930178 -21.655041 -24.200228 38.210922 90.442467 92.245514 -4.893553 -5.051108 59.675430 11.651778 -55.361794 -90.405777 -20.052402 -6.606799 96.559227 -7.353359 1.707714 39.493183 1.618549 20.357464 
0.000000 7.522690 0.000000 -48.026028 0.432040 -1.982361 31.122530 -13.270316 1.399263 24.709583 5.973298 -3.364387 6.218507 0.895668 -0.870218 -24.333502 9.996986 9.000123 12.818349 -14.306571 -3.182500 -58.918037 -1.490264 -4.198714 -16.721472 9.920465 -22.008644 31.079367 9.632678 59.290344 21.488667 5.494109 -6.006965 -9.915583 39.254395 -25.398357 18.671732 4.486086 -55.105438 7.293101 6.930178 -21.655041 -24.200228 38.210922 90.442467 92.245514 -4.893553 -5.051108 59.675430 11.651777 -55.361797 -90.405777 -20.052402 -6.606799 96.559227 -7.353359 1.707714 39.493183 1.618549 20.357464 
